<?xml version="1.0" encoding="UTF-8" standalone="no"?>
<!-- Created with Inkscape (http://www.inkscape.org/) -->

<svg
   width="136.27368mm"
   height="115.29272mm"
   viewBox="0 0 136.27368 115.29273"
   version="1.1"
   id="svg1"
   xml:space="preserve"
   xmlns="http://www.w3.org/2000/svg"
   xmlns:svg="http://www.w3.org/2000/svg"
   xmlns:rdf="http://www.w3.org/1999/02/22-rdf-syntax-ns#"
   xmlns:cc="http://creativecommons.org/ns#"
   xmlns:dc="http://purl.org/dc/elements/1.1/"><title
     id="title1">Private AI Hub</title><defs
     id="defs1" /><g
     id="layer1"
     style="display:inline"
     transform="translate(-40.033372,-17.176381)"><g
       id="g60"><g
         id="g7"><ellipse
           style="fill:#ffffff;fill-opacity:1;fill-rule:evenodd;stroke:#1d315e;stroke-width:0.9;stroke-dasharray:none;stroke-dashoffset:0;stroke-opacity:1"
           id="path1"
           cx="50.129627"
           cy="70.477173"
           rx="9.6462555"
           ry="9.5564165" /><path
           style="fill:none;stroke:#1d315e;stroke-width:0.9;stroke-linecap:butt;stroke-linejoin:miter;stroke-dasharray:none;stroke-opacity:1"
           d="M 59.785133,70.533021 H 81.056995"
           id="path2" /></g><g
         id="g6"><path
           id="rect2"
           style="fill:#8164e3;fill-rule:evenodd;stroke:#8164e3;stroke-width:0.860245"
           d="m 46.949598,65.346654 h 4.295104 c 0.156382,0 0.37886,-0.10202 1.01007,0.52919 0.315605,0.315605 1.34356,1.374304 1.822394,1.858646 0.478834,0.484342 0.408546,0.461503 0.408546,0.539694 v 6.713379 c 0,0.312764 -0.251793,0.564556 -0.564557,0.564556 h -6.971557 c -0.312764,0 -0.564556,-0.251792 -0.564556,-0.564556 v -9.076352 c 0,-0.312765 0.251792,-0.564557 0.564556,-0.564557 z" /><g
           id="g5"><rect
             style="fill:#ffffff;fill-opacity:1;fill-rule:evenodd;stroke:none;stroke-width:0.853815;stroke-dasharray:none;stroke-dashoffset:0;stroke-opacity:1"
             id="rect3"
             width="5.4411187"
             height="0.91804886"
             x="47.648972"
             y="69.144753"
             ry="0"
             rx="0" /><rect
             style="fill:#ffffff;fill-opacity:1;fill-rule:evenodd;stroke:none;stroke-width:0.853815;stroke-dasharray:none;stroke-dashoffset:0;stroke-opacity:1"
             id="rect4"
             width="5.4411187"
             height="0.91804886"
             x="47.648972"
             y="71.147636"
             ry="0"
             rx="0" /><rect
             style="fill:#ffffff;fill-opacity:1;fill-rule:evenodd;stroke:none;stroke-width:0.853815;stroke-dasharray:none;stroke-dashoffset:0;stroke-opacity:1"
             id="rect5"
             width="5.4411187"
             height="0.91804886"
             x="47.648972"
             y="73.150528"
             ry="0"
             rx="0" /></g></g></g><g
       id="g62"><g
         id="g8"
         transform="matrix(-1,0,0,1,216.34042,0)"><ellipse
           style="fill:#ffffff;fill-opacity:1;fill-rule:evenodd;stroke:#1d315e;stroke-width:0.9;stroke-dasharray:none;stroke-dashoffset:0;stroke-opacity:1"
           id="ellipse7"
           cx="50.129627"
           cy="70.477173"
           rx="9.6462555"
           ry="9.5564165" /><path
           style="fill:none;stroke:#1d315e;stroke-width:0.9;stroke-linecap:butt;stroke-linejoin:miter;stroke-dasharray:none;stroke-opacity:1"
           d="M 59.785133,70.533021 H 81.056995"
           id="path7" /></g><text
         xml:space="preserve"
         style="font-size:2.82223px;line-height:1.25;font-family:sans-serif;letter-spacing:0px;word-spacing:0px;stroke-width:0.264583"
         x="159.51903"
         y="74.517586"
         id="text8"><tspan
           id="tspan8"
           style="font-style:normal;font-variant:normal;font-weight:bold;font-stretch:condensed;font-size:11.2889px;font-family:Arial;-inkscape-font-specification:'Arial, Bold Condensed';font-variant-ligatures:normal;font-variant-caps:normal;font-variant-numeric:normal;font-variant-east-asian:normal;fill:#8164e3;fill-opacity:1;stroke-width:0.264583"
           x="159.51903"
           y="74.517586">&lt;/&gt;</tspan></text></g><g
       id="g61"
       transform="translate(-0.27186581)"><g
         id="g9"
         transform="matrix(0,1,1,0,37.945322,-22.856991)"><ellipse
           style="fill:#ffffff;fill-opacity:1;fill-rule:evenodd;stroke:#1d315e;stroke-width:0.9;stroke-dasharray:none;stroke-dashoffset:0;stroke-opacity:1"
           id="ellipse8"
           cx="50.129627"
           cy="70.477173"
           rx="9.6462555"
           ry="9.5564165" /><path
           style="fill:none;stroke:#1d315e;stroke-width:0.605198;stroke-linecap:butt;stroke-linejoin:miter;stroke-dasharray:none;stroke-opacity:1"
           d="m 59.785133,70.533021 h 9.618674"
           id="path8" /></g><g
         id="g11"><path
           id="rect9"
           style="fill:#8164e3;fill-opacity:1;fill-rule:evenodd;stroke:none;stroke-width:0.899999;stroke-dasharray:none;stroke-dashoffset:0;stroke-opacity:1"
           d="m 105.13208,23.179464 c -0.94732,0 -1.70997,0.762645 -1.70997,1.709973 v 3.926892 c 0,0.840029 0.59942,1.534931 1.39578,1.681551 -0.0805,0.523882 -0.22043,1.150383 -0.44597,1.358573 -0.38794,0.358098 1.75516,-0.774437 2.10944,-1.330151 h 4.85706 c 0.94733,0 1.70998,-0.762645 1.70998,-1.709973 v -3.926892 c 0,-0.947328 -0.76265,-1.709973 -1.70998,-1.709973 z" /><g
           id="g10"><circle
             style="fill:#ffffff;fill-opacity:1;fill-rule:evenodd;stroke:none;stroke-width:0.365001;stroke-dasharray:none;stroke-dashoffset:0;stroke-opacity:1"
             id="path9"
             cx="106.05034"
             cy="27.011332"
             r="0.69665796" /><circle
             style="fill:#ffffff;fill-opacity:1;fill-rule:evenodd;stroke:none;stroke-width:0.365001;stroke-dasharray:none;stroke-dashoffset:0;stroke-opacity:1"
             id="circle9"
             cx="108.43159"
             cy="27.011332"
             r="0.69665796" /><circle
             style="fill:#ffffff;fill-opacity:1;fill-rule:evenodd;stroke:none;stroke-width:0.365001;stroke-dasharray:none;stroke-dashoffset:0;stroke-opacity:1"
             id="circle10"
             cx="110.81285"
             cy="27.011332"
             r="0.69665796" /></g></g></g><g
       id="g59"><rect
         style="fill:#ffffff;fill-opacity:1;fill-rule:evenodd;stroke:#1d315e;stroke-width:1.86;stroke-dasharray:none;stroke-dashoffset:0;stroke-opacity:1"
         id="rect11"
         width="54.550312"
         height="53.296394"
         x="80.875473"
         y="46.034397"
         ry="12.180941" /><g
         id="g47"
         transform="translate(-8.4666671)"><g
           id="g13"><rect
             style="fill:#1d315e;fill-opacity:1;fill-rule:evenodd;stroke:#1d315e;stroke-width:0.570648;stroke-dasharray:none;stroke-dashoffset:0;stroke-opacity:1"
             id="rect12"
             width="11.515875"
             height="8.919241"
             x="126.39719"
             y="85.789253"
             ry="1.0531945" /><path
             id="path12"
             style="fill:#ffffff;fill-opacity:1;fill-rule:evenodd;stroke:none;stroke-width:0.687106;stroke-dasharray:none;stroke-dashoffset:0;stroke-opacity:1"
             d="m 132.15487,87.76763 a 1.5185956,1.4724817 0 0 0 -1.51826,1.472261 1.5185956,1.4724817 0 0 0 0.71107,1.246953 v 2.243274 h 1.61489 v -2.243274 a 1.5185956,1.4724817 0 0 0 0.71107,-1.246953 1.5185956,1.4724817 0 0 0 -1.51877,-1.472261 z" /></g><path
           id="path47"
           style="baseline-shift:baseline;display:inline;overflow:visible;opacity:1;vector-effect:none;fill:#1d315e;fill-rule:evenodd;enable-background:accumulate;stop-color:#000000;stop-opacity:1"
           d="m 132.1564,78.666458 c -2.32154,-3e-6 -4.23932,1.849653 -4.32067,4.169772 l 0.0176,5.16e-4 v 4.028695 h 8.60568 v -4.028695 l 0.0155,-5.16e-4 c -0.0813,-2.320114 -1.99654,-4.169769 -4.31808,-4.169772 z m 0,1.228349 c 1.60278,3e-6 2.91755,1.205979 3.07578,2.777608 h -0.004 v 2.964677 h -6.1464 v -2.964677 h -0.004 c 0.15838,-1.571633 1.47506,-2.77761 3.07785,-2.777608 z" /></g><g
         id="g58"><circle
           style="fill:#ffffff;fill-opacity:1;fill-rule:evenodd;stroke:#8164e3;stroke-width:1.2;stroke-dasharray:none;stroke-dashoffset:0;stroke-opacity:1"
           id="path48"
           cx="101.38842"
           cy="61.979492"
           r="1.5426543" /><circle
           style="fill:#ffffff;fill-opacity:1;fill-rule:evenodd;stroke:#8164e3;stroke-width:1.2;stroke-dasharray:none;stroke-dashoffset:0;stroke-opacity:1"
           id="circle48"
           cx="96.910133"
           cy="71.921288"
           r="1.5426543" /><circle
           style="fill:#ffffff;fill-opacity:1;fill-rule:evenodd;stroke:#8164e3;stroke-width:1.2;stroke-dasharray:none;stroke-dashoffset:0;stroke-opacity:1"
           id="circle49"
           cx="103.09017"
           cy="82.221352"
           r="1.5426543" /><circle
           style="fill:#ffffff;fill-opacity:1;fill-rule:evenodd;stroke:#8164e3;stroke-width:1.2;stroke-dasharray:none;stroke-dashoffset:0;stroke-opacity:1"
           id="circle50"
           cx="113.92763"
           cy="82.490051"
           r="1.5426543" /><circle
           style="fill:#ffffff;fill-opacity:1;fill-rule:evenodd;stroke:#8164e3;stroke-width:1.2;stroke-dasharray:none;stroke-dashoffset:0;stroke-opacity:1"
           id="circle51"
           cx="121.89898"
           cy="72.100426"
           r="1.5426543" /><path
           style="fill:none;stroke:#8164e3;stroke-width:1.165;stroke-linecap:butt;stroke-linejoin:miter;stroke-dasharray:none;stroke-opacity:1"
           d="m 103.17973,80.698733 0.17913,-11.733112 -1.88088,-1.522618 v -3.940892"
           id="path51" /><path
           style="fill:none;stroke:#8164e3;stroke-width:1.165;stroke-linecap:butt;stroke-linejoin:miter;stroke-dasharray:none;stroke-opacity:1"
           d="m 103.35886,72.369118 -5.015676,-0.08956 v 0"
           id="path52" /><path
           style="fill:none;stroke:#8164e3;stroke-width:1.165;stroke-linecap:butt;stroke-linejoin:miter;stroke-dasharray:none;stroke-opacity:1"
           d="m 103.29538,76.094049 h -4.306615 c 0,0 -1.044988,3.166629 -4.654942,2.311638 -3.609956,-0.854987 -5.478265,-5.383266 -2.754966,-9.974876 0.550895,-0.928835 -0.602273,-1.391051 -0.291958,-1.966107 1.223701,-2.267677 2.398865,-2.380417 2.398865,-2.380417"
           id="path53" /><path
           style="fill:none;stroke:#8164e3;stroke-width:1.165;stroke-linecap:butt;stroke-linejoin:miter;stroke-dasharray:none;stroke-opacity:1"
           d="m 101.56755,67.532569 h -4.254373 c 0,0 -4.38872,-2.507842 -3.672194,-6.403951 0.716526,-3.896108 5.911339,-4.836549 5.687422,-4.075242 -0.223914,0.76131 0.761305,-3.716978 4.567855,-3.582628 3.80654,0.134348 4.03046,2.686971 4.03046,2.686971 v 31.303227 c 0,0 -0.78472,2.115311 -2.86039,2.742611 -0.53138,0.16059 -1.44877,0.202985 -1.99451,0.09889 -1.64312,-0.313396 -2.78437,-1.557717 -3.264763,-2.595575 -0.230969,-0.498991 -0.535098,-1.364106 -1.037052,-1.45126 C 97.43978,86.024646 94.7957,86.073242 93.914927,83.443742 93.78289,83.049553 93.66822,82.381673 93.612082,81.968723 93.109486,78.271647 94.536638,78.54915 94.536638,78.54915"
           id="path54" /><path
           style="fill:none;stroke:#8164e3;stroke-width:1.18419;stroke-linecap:butt;stroke-linejoin:miter;stroke-dasharray:none;stroke-opacity:1"
           d="m 107.92672,72.189987 h 12.5392"
           id="path55" /><circle
           style="fill:#ffffff;fill-opacity:1;fill-rule:evenodd;stroke:#8164e3;stroke-width:1.2;stroke-dasharray:none;stroke-dashoffset:0;stroke-opacity:1"
           id="circle55"
           cx="113.65893"
           cy="55.620323"
           r="1.5426543" /><path
           style="fill:none;stroke:#8164e3;stroke-width:1.165;stroke-linecap:butt;stroke-linejoin:miter;stroke-dasharray:none;stroke-opacity:1"
           d="m 107.9715,76.198054 h 4.32155 c 0,0 0.74573,0.03419 0.97172,0.199923 0.226,0.165731 0.34937,0.718126 0.34937,0.718126 v 3.784153"
           id="path56" /><path
           style="fill:none;stroke:#8164e3;stroke-width:1.165;stroke-linecap:butt;stroke-linejoin:miter;stroke-dasharray:none;stroke-opacity:1"
           d="m 108.01366,65.64418 c 0,0 2.84996,-1.86831 3.16662,-2.02664 0.31666,-0.158332 1.26665,-1.709981 1.64664,-1.741646 0.38,-0.03167 0.69666,-0.095 0.69666,-0.095 v -4.623276"
           id="path57" /><path
           style="fill:none;stroke:#8164e3;stroke-width:1.165;stroke-linecap:butt;stroke-linejoin:miter;stroke-dasharray:none;stroke-opacity:1"
           d="m 113.52358,72.167432 c 0,0 0.0317,-3.071628 1.07666,-3.134961 1.04498,-0.06333 0.41668,-1.858507 0.85498,-2.691633 0.11207,-0.21302 0.18901,-0.41588 0.44333,-0.569992 0.1434,-0.0869 0.45733,-0.136207 0.70389,-0.162688 0.1879,-0.02018 0.49485,-0.02731 0.68451,-0.02731 h 2.27181 c 0.11216,0 0.28523,-0.03923 0.38272,-0.09464 0.19191,-0.109063 0.49603,-0.305719 0.70067,-0.554779 0.0612,-0.07452 0.14169,-0.209662 0.19688,-0.289184 0.19518,-0.281229 0.23317,-0.263794 0.31612,-1.784701 0.095,-1.741644 -0.98165,-2.469971 -0.98165,-2.469971 l -4.93994,-3.958283"
           id="path58" /></g></g><text
       xml:space="preserve"
       style="font-weight:bold;font-stretch:condensed;font-size:11.2889px;line-height:1.25;font-family:Arial;-inkscape-font-specification:'Arial, Bold Condensed';letter-spacing:0px;word-spacing:0px;fill:#1d315e;fill-opacity:1;stroke-width:0.264583"
       x="48.186371"
       y="118.94327"
       id="text62"><tspan
         id="tspan62"
         style="font-style:normal;font-variant:normal;font-weight:bold;font-stretch:normal;font-size:17.9917px;font-family:Arial;-inkscape-font-specification:'Arial, Bold';font-variant-ligatures:normal;font-variant-caps:normal;font-variant-numeric:normal;font-variant-east-asian:normal;fill:#1d315e;fill-opacity:1;stroke-width:0.264583"
         x="48.186371"
         y="118.94327">Private AI Hub</tspan></text><text
       xml:space="preserve"
       style="font-style:normal;font-variant:normal;font-weight:normal;font-stretch:normal;font-size:7.76111px;line-height:1.25;font-family:Arial;-inkscape-font-specification:'Arial, Normal';font-variant-ligatures:normal;font-variant-caps:normal;font-variant-numeric:normal;font-variant-east-asian:normal;letter-spacing:0px;word-spacing:0px;fill:#8164e3;fill-opacity:1;stroke-width:0.264583"
       x="55.312843"
       y="132.37816"
       id="text63"><tspan
         id="tspan1"
         x="55.312843"
         y="132.37816">Your AI. Your data. Your control.</tspan></text></g><metadata
     id="metadata1"><rdf:RDF><cc:Work
         rdf:about=""><dc:title>Private AI Hub</dc:title><dc:creator><cc:Agent><dc:title>Manuel Vázquez</dc:title></cc:Agent></dc:creator></cc:Work></rdf:RDF></metadata></svg>
